<svg width="165" height="65" viewBox="0 0 165 65" xmlns="http://www.w3.org/2000/svg"><g fill="#FFF" fill-rule="evenodd"><path d="M29.155 7.268h2.027s-.38-.81-.44-2.926c2.12.06 2.93.43 2.93.43v-2.03s-.81.38-2.93.442c.06-2.125.44-2.937.44-2.937h-2.027s.372.812.43 2.937c-2.114-.062-2.92-.442-2.92-.442v2.03s.806-.37 2.92-.43c-.06 2.118-.43 2.926-.43 2.926zm26.454 10.08c.005 6.206-.01 10.925-.005 17.13.007 7.345 0 22.372-.002 25.458-2.9-.745-5.918-1.39-8.87-1.48-5.663-.174-12.05 1.428-16.485 5.274l-.05.044c-4.144-3.633-9.97-5.224-15.28-5.292-3.384-.044-6.84.62-10.17 1.367L4.73 41.43c-.006-8.068.017-23.627.017-24.082 0-.4-1.582-.995-1.582-.594.006 6.208.01 11.523.017 17.732.007 8.068-.017 25.41-.017 25.865 0 .363 1.012.287 1.2.24 3.053-.734 6.258-1.048 9.39-1.103 5.483-.1 11.63 1.1 15.7 5.124.31.307 1.178.307 1.487 0 4.13-4.08 10.224-5.3 15.79-5.152 3.095.083 6.28.468 9.28 1.27.187.05 1.16.118 1.16-.24l-.018-18.914c-.01-8.098.018-24.348.018-24.82 0-.403-1.564.193-1.563.593z"/><path d="M11.343 11.863c2.892-2.198 4.98-4.632 8.634-4.632 1.867 0 3.114 1.908 3.114 3.073 0 .81-.216 2.446-2.022 2.446-1.58 0-2.037-1.927-1.394-2.99-2.33 0-2.455 3.612 1.423 3.612 1.66 0 3.372-.965 3.372-2.97 0-1.35-.957-3.706-4.5-3.706-3.883 0-6.365 1.986-9.502 4.34-3.24 2.43-6.165 3.094-10.155 2.685v.594h.01l-.005 41.88c0 .4 1.543.994 1.543.594l.004-42.29c3.434.257 6.716-.535 9.48-2.635zm38.467-.826c-3.136-2.355-5.618-4.34-9.502-4.34-3.542 0-4.498 2.354-4.498 3.703 0 2.006 1.71 2.972 3.37 2.972 3.88 0 3.754-3.614 1.425-3.614.642 1.065.185 2.99-1.395 2.99-1.805 0-2.023-1.634-2.023-2.446 0-1.165 1.248-3.07 3.114-3.07 3.655 0 5.743 2.432 8.636 4.63 2.762 2.1 6.045 2.893 9.48 2.636l.002 42.29c0 .4 1.543-.195 1.543-.596l-.002-41.877c.003 0 .01-.594.01-.594-3.993.41-6.92-.253-10.157-2.683z"/><path d="M23.812 33.378c-.955-1.798-4.308-8.695-5.74-11.622-.964-1.968-2.278-2.717-3.275-2.953-.685-.163-4.073.002-4.876.005v.054c1.03.436 3.08 2.715 3.875 4.438.535 1.16 3.743 7.747 4.856 9.86 1.11 2.1 3.543 2.864 4.575 2.99.474.06.968.058 1.46.046-5.005 6.616-9.615 12.727-9.09 12.003-1.64 2.017-3.2 2.828-4.73 3.292l.008.288c3.998 0 6.84-2.95 7.335-3.594.87-1.134 5.3-7.07 9.885-13.15v14.358h3.954v-18.84c.845.68 1.833 1.75 2.545 3.033.383.69 2.315 5.228 3.588 6.99 1.07 1.478 2.724 1.71 4.282 1.713a2632.098 2632.098 0 0 1-7.925 10.43c-.706.92-1.418 1.813-2.207 2.642-.314.33-1.963 2.203-3.45 2.203-1.63 0-2.675-1.278-2.675-2.544 0-1.373.742-2.803 2.354-3.163 1.53-.34 2.792.475 3.027.72 0 0 1.548-.438 1.55-.45-.883-.79-3.27-1.253-4.677-1.013-2.176.372-4.09 1.826-4.09 4.037 0 1.488 1.494 3.084 4.486 3.084 3.596 0 5.98-2.748 6.773-3.61.385-.42 9.285-12.262 14.38-18.957H50l.3-.404c.723-.988 3.286-4.128 2.1-5.505l-2.97-.003v.167c1.513.873-.753 4.18-1.933 5.745h-.02c-1.265 1.668-2.71 3.58-4.2 5.547-.34-.337-.56-.752-.792-1.19a313.984 313.984 0 0 1-3.723-7.385c-.684-1.423-2.015-2.81-3.363-2.88-1.11-.058-2.238.045-3.353.056v-.002c2.09-2.744 3.99-5.216 5.336-6.91.723-.907 1.418-1.812 2.207-2.64.314-.33 1.962-2.205 3.45-2.205 1.63 0 2.675 1.277 2.675 2.544 0 1.374-.742 2.805-2.354 3.164-1.53.34-2.792-.476-3.027-.72 0 0-1.55.437-1.55.45.882.79 3.27 1.253 4.677 1.013 2.175-.37 4.09-1.825 4.09-4.036 0-1.487-1.495-3.083-4.486-3.083-3.597 0-5.98 2.75-6.773 3.61-.275.3-1.952 2.48-4.243 5.487V10.275h-3.954v21.42c-.87 1.147-1.76 2.323-2.645 3.493a4.847 4.847 0 0 1-1.636-1.81zM79.27 13.36c-.658.136-1.136.573-1.433 1.31l-2.193 5.068c-.643 1.464-1.094 2.38-1.352 2.746-.56.786-1.292 1.18-2.193 1.18-.484 0-.903-.1-1.26-.294-.486-.244-.73-.605-.73-1.084 0-.567.266-.85.797-.85.22 0 .426.078.62.234.177.18.265.376.265.586l-.015.352c0 .288.193.432.578.432.784 0 1.44-.713 1.966-2.14l-3.602-6.377c-.41-.747-.807-1.13-1.192-1.15v-.63h3.267v.63c-.414.01-.62.152-.62.425 0 .17.12.46.357.864l2.537 4.563h-.03l1.997-4.607c.116-.23.175-.44.175-.63a.58.58 0 0 0-.213-.468c-.127-.127-.32-.17-.578-.132v-.645h2.85v.616zm2.087 6.13c.53 0 .928-.138 1.19-.41.088-.11.266-.443.534-1.005.508-1.03 1.166-1.545 1.975-1.545.166 0 .297.008.395.023v1.932h-.563c-.166-.356-.356-.534-.57-.534-.2 0-.424.213-.673.638-.336.532-.63.874-.884 1.025v-.007a2.356 2.356 0 0 1 1.49.886c.27.303.578.864.93 1.684.16.337.258.535.292.594.12.112.38.23.775.35v.41c-.23.074-.458.11-.688.11-.688 0-1.21-.187-1.572-.563-.244-.234-.514-.747-.812-1.538-.21-.5-.39-.834-.54-1.004-.254-.288-.585-.432-.995-.432h-.43v1.588c0 .767.256 1.175.768 1.224v.593h-2.873v-.594c.51-.05.767-.457.767-1.224v-3.17c0-.41-.034-.693-.102-.85-.102-.21-.324-.347-.665-.41v-.564h2.873v.564c-.342.063-.563.2-.666.41-.068.156-.102.44-.102.85v.966h.147zm6.188 6.385c.51-.05.767-.442.767-1.18v-4.832c0-.752.07-1.282.212-1.59.497-1.093 1.486-1.64 2.968-1.64.872 0 1.625.264 2.26.79.744.626 1.117 1.498 1.117 2.616 0 1.102-.384 1.998-1.15 2.686-.58.503-1.283.754-2.11.754-.85 0-1.5-.234-1.953-.703h-.007v1.904c0 .797.295 1.195.884 1.195v.57h-2.99v-.57zm2.105-4.907c0 1.2.61 1.802 1.827 1.802 1.238 0 1.857-.91 1.857-2.73 0-1.813-.614-2.72-1.842-2.72-.614 0-1.096.228-1.447.682-.263.337-.395.693-.395 1.07v1.896zm10.893 1.64c-.6.61-1.29.916-2.068.916-.653 0-1.162-.178-1.528-.535-.36-.323-.54-.752-.54-1.29 0-1.454 1.317-2.26 3.954-2.416 0-.664-.075-1.14-.226-1.428-.17-.38-.51-.57-1.016-.57-.42 0-.697.175-.833.527a14.69 14.69 0 0 1-.183.505c-.102.15-.27.227-.504.227-.395 0-.593-.178-.593-.535 0-.322.195-.61.585-.864.434-.308.992-.46 1.674-.46 1.048 0 1.752.34 2.113 1.024.214.42.32 1.057.32 1.91v2.11c0 .68.23 1.018.69 1.018.072 0 .182-.037.33-.11l.144.25c-.296.423-.68.636-1.154.636-.595 0-.982-.305-1.163-.916zm-.182-2.702c-1.676.093-2.514.68-2.514 1.765 0 .328.115.595.344.8.214.185.49.277.825.277.556 0 .94-.242 1.148-.725.132-.327.198-.844.198-1.552v-.564zm3.583-5.968c.15-.2.368-.3.65-.3.244 0 .444.085.6.257a.83.83 0 0 1 .278.622c0 .273-.1.493-.3.66-.19.155-.38.233-.576.233a.868.868 0 0 1-.62-.27.873.873 0 0 1-.27-.623c0-.21.08-.403.24-.58zm2.668 2.775v5.002c0 .786.267 1.193.798 1.223v.586h-2.902v-.58c.507-.058.76-.468.76-1.23v-3.177c0-.405-.036-.684-.11-.835-.082-.205-.3-.34-.65-.41v-.58h2.105zm-.37-2.775c.154-.2.37-.3.642-.3.253 0 .456.085.606.257a.84.84 0 0 1 .27.622.814.814 0 0 1-.3.66c-.19.155-.382.233-.576.233a.87.87 0 0 1-.622-.27.872.872 0 0 1-.27-.623c0-.21.083-.403.25-.58zm2.83 9.008c.512-.06.768-.47.768-1.23v-3.18c0-.404-.034-.683-.102-.834-.103-.205-.324-.34-.665-.41v-.578h2.895v.578c-.336.07-.553.2-.65.396-.093.152-.14.435-.14.85v1.266h3.056v-1.267c0-.395-.045-.668-.138-.82-.087-.224-.302-.366-.643-.424v-.58h2.9v.58c-.345.068-.562.205-.65.41-.092.15-.14.43-.14.834v3.18c0 .75.265 1.16.79 1.23v.578h-2.9v-.586c.52-.03.78-.438.78-1.224v-1.282h-3.054v1.282c0 .786.263 1.193.79 1.223v.585h-2.895v-.58zm15.017-.8c-.824.92-1.77 1.378-2.836 1.378-.886 0-1.637-.283-2.25-.85-.678-.615-1.017-1.44-1.017-2.475 0-1.026.322-1.876.965-2.55.62-.692 1.418-1.04 2.397-1.04.707 0 1.26.142 1.66.425.37.25.556.542.556.88 0 .42-.226.63-.68.63-.467 0-.71-.233-.73-.697v-.03c-.04-.4-.293-.6-.76-.6-.527 0-.95.22-1.265.66-.405.507-.607 1.28-.607 2.32 0 .948.28 1.627.84 2.037.36.283.785.424 1.273.424.868 0 1.57-.29 2.106-.865l.35.352zm4.055-5.433v.58c-.346.058-.568.2-.665.424-.073.15-.11.424-.11.82v.454a4.06 4.06 0 0 1 1.88-.46c.808 0 1.443.246 1.907.74.423.463.635 1.064.635 1.8 0 .63-.18 1.163-.542 1.598-.458.57-1.157.856-2.098.856h-3.918v-.578c.522-.07.782-.478.782-1.23v-3.18c0-.404-.04-.683-.117-.834-.102-.205-.324-.34-.665-.41v-.578h2.91zm.212 6.196c1.257 0 1.886-.638 1.886-1.912 0-1.074-.5-1.61-1.498-1.61-.4 0-.858.123-1.374.372v3.15h.986zm7.408-3.42c.53 0 .928-.138 1.19-.41.09-.11.267-.443.535-1.005.507-1.03 1.164-1.545 1.973-1.545.166 0 .298.008.395.023v1.932h-.563c-.166-.356-.356-.534-.57-.534-.2 0-.424.213-.672.638-.336.532-.632.874-.885 1.025v-.007a2.356 2.356 0 0 1 1.49.886c.27.303.58.864.93 1.684.16.337.26.535.292.594.122.112.38.23.775.35v.41c-.23.074-.458.11-.687.11-.687 0-1.21-.187-1.572-.563-.243-.234-.514-.747-.81-1.538-.21-.5-.39-.834-.542-1.004-.253-.288-.584-.432-.993-.432h-.432v1.588c0 .767.256 1.175.768 1.224v.593h-2.873v-.594c.51-.05.767-.457.767-1.224v-3.17c0-.41-.034-.693-.102-.85-.102-.21-.324-.347-.665-.41v-.564h2.873v.564c-.34.063-.563.2-.665.41-.07.156-.103.44-.103.85v.966h.147zm9.496-2.777v.58c-.346.068-.568.204-.666.41-.063.15-.095.43-.095.834l.008 2.467 2.93-2.79c-.038-.497-.292-.805-.76-.923v-.577h2.86v.578c-.318.07-.528.2-.63.397-.088.16-.13.444-.13.85v3.178c0 .762.252 1.172.76 1.23v.58h-2.896v-.58c.53-.06.796-.47.796-1.23v-2.54l-2.94 2.745c.006.635.26.977.76 1.026v.578h-2.893v-.585c.52-.05.782-.458.782-1.225v-3.178c0-.786-.26-1.198-.782-1.238v-.586h2.895zm9.137 0v.58c-.346.068-.568.204-.666.41-.064.15-.096.43-.096.834l.008 2.467 2.93-2.79c-.04-.497-.292-.805-.76-.923v-.577h2.86v.578c-.318.07-.528.2-.63.397-.088.16-.13.444-.13.85v3.178c0 .762.252 1.172.76 1.23v.58h-2.896v-.58c.53-.06.797-.47.797-1.23v-2.54l-2.94 2.745c.006.635.26.977.76 1.026v.578H151.5v-.585c.52-.05.782-.458.782-1.225v-3.178c0-.786-.26-1.198-.782-1.238v-.586h2.895zm-1.133-1.105c-.405-.327-.612-.703-.62-1.128-.01-.35.12-.644.393-.88.24-.248.546-.372.922-.372.497 0 .745.212.745.637 0 .376-.192.564-.577.564-.073 0-.217-.047-.432-.14a.523.523 0 0 0-.27-.074c-.14 0-.212.088-.212.264 0 .215.17.396.505.542.376.176.843.264 1.404.264.58 0 1.054-.088 1.424-.264.347-.146.52-.327.52-.542 0-.176-.084-.264-.25-.264a.556.556 0 0 0-.255.074c-.206.093-.354.14-.447.14-.36 0-.54-.19-.54-.565 0-.425.248-.637.744-.637.36 0 .665.127.914.38a1.1 1.1 0 0 1 .388.872c-.01.425-.22.8-.628 1.128-.473.376-1.097.564-1.872.564-.764 0-1.384-.188-1.856-.564zM72.844 29.164v.6c-.604.07-.906.462-.906 1.18v2.285c.025.004.107.007.25.007.773 0 1.393-.215 1.855-.645.268-.264.527-.667.775-1.208.317-.723.614-1.238.892-1.546.463-.537 1.013-.805 1.652-.805.36 0 .697.068 1.01.205v2.453h-.666c-.068-.595-.31-.892-.724-.892-.293 0-.716.38-1.272 1.142-.648.845-1.3 1.355-1.952 1.53v.015c1.487.18 2.576 1.116 3.268 2.805.42 1.055.697 1.697.833 1.927.374.65 1.02.976 1.936.98v.733c-.302.04-.68.078-1.133.117-.965-.03-1.71-.37-2.237-1.025-.292-.376-.762-1.35-1.41-2.922-.37-.947-.846-1.577-1.426-1.89-.346-.19-.838-.286-1.476-.286h-.176v4.226c0 .737.302 1.13.906 1.178v.63h-3.318v-.63c.604-.058.906-.45.906-1.178v-7.206c0-.718-.302-1.11-.906-1.18v-.6h3.318zm12.74 9.857c-.6.61-1.29.916-2.07.916-.652 0-1.16-.178-1.527-.534-.36-.322-.54-.752-.54-1.29 0-1.454 1.317-2.26 3.954-2.415 0-.664-.075-1.14-.226-1.428-.17-.382-.51-.572-1.015-.572-.42 0-.698.175-.835.527a14.92 14.92 0 0 1-.182.505c-.102.152-.27.227-.505.227-.395 0-.592-.178-.592-.534 0-.323.195-.61.585-.864.435-.31.992-.463 1.675-.463 1.047 0 1.752.342 2.112 1.025.215.42.322 1.058.322 1.912v2.11c0 .677.228 1.017.686 1.017.073 0 .183-.036.33-.11l.146.25c-.297.424-.683.636-1.155.636-.596 0-.983-.305-1.163-.915zm-.184-2.7c-1.676.093-2.515.68-2.515 1.765 0 .328.115.593.344.798.213.186.49.278.825.278.555 0 .938-.24 1.148-.724.132-.327.197-.845.197-1.552v-.564zm9.38-3.194v2.22h-.57c-.09-1.07-.67-1.605-1.75-1.605h-.247v4.387c0 .767.268 1.175.804 1.223v.586h-2.924v-.58c.346-.053.56-.17.643-.35.098-.17.147-.464.147-.88v-4.385h-.227c-1.038 0-1.627.535-1.77 1.605h-.57v-2.22h6.463zm7.944 2.454c.073.302.11.644.11 1.024 0 .245-.037.528-.11.85-.254 1.016-.807 1.738-1.66 2.168a3.365 3.365 0 0 1-1.564.38 3.22 3.22 0 0 1-1.55-.38c-.867-.43-1.43-1.152-1.688-2.168a3.882 3.882 0 0 1-.11-.85c0-.38.037-.722.11-1.024.443-1.72 1.523-2.578 3.238-2.578 1.72 0 2.795.86 3.224 2.578zm-4.51-1.348c-.366.435-.55 1.208-.55 2.32 0 .763.08 1.337.236 1.722.258.743.784 1.113 1.58 1.113 1.207 0 1.812-.944 1.812-2.834 0-1.113-.186-1.886-.556-2.32-.268-.358-.688-.536-1.257-.536-.562 0-.984.178-1.266.535zm10.138-1.106l1.484 5.09c.234.654.595 1.03 1.082 1.128v.578h-2.032l-1.484-5.236-.03.015c-.52 1.753-.81 2.698-.862 2.834-.585 1.68-1.274 2.52-2.068 2.52-.23 0-.398-.027-.505-.08-.288-.133-.43-.382-.43-.748 0-.385.238-.58.715-.58.093 0 .207.03.344.082a.667.667 0 0 0 .27.09c.107 0 .183-.016.227-.046.307-.107.62-.68.943-1.713.487-1.54.73-2.48.73-2.828-.097-.342-.355-.52-.775-.534v-.57h2.392zm7.096 0v.58c-.346.067-.568.204-.666.41-.063.15-.095.43-.095.833l.008 2.467 2.93-2.79c-.038-.498-.292-.805-.76-.923v-.578h2.86v.578c-.318.068-.528.2-.63.396-.088.16-.13.444-.13.85v3.178c0 .762.252 1.172.76 1.23v.578h-2.896v-.578c.53-.06.796-.47.796-1.23v-2.54l-2.94 2.745c.006.635.26.977.76 1.025v.58h-2.893v-.587c.52-.047.782-.455.782-1.222V34.95c0-.786-.26-1.2-.782-1.238v-.585h2.895zm13.478.586c-.517.04-.776.44-.776 1.208v3.845c0 .22.132.415.395.586.824.567 1.236 1.104 1.236 1.612 0 .532-.19.98-.57 1.347-.423.41-.974.615-1.652.615-.477 0-1.084-.127-1.82-.38-1.194-.42-1.95-.63-2.266-.63-.277 0-.416.118-.416.358 0 .054.03.08.087.08.103 0 .158-.014.17-.044a.193.193 0 0 1 .16-.074c.287 0 .43.15.43.454 0 .367-.185.55-.555.55-.502 0-.753-.26-.753-.777 0-.362.153-.68.46-.96.4-.34.956-.512 1.667-.512.376 0 .897.116 1.565.345 1.15.367 1.808.55 1.973.55.634 0 .95-.313.95-.938 0-.317-.14-.57-.423-.755a1.84 1.84 0 0 0-.972-.248h-6.2v-.586c.522-.04.783-.447.783-1.223V34.92c0-.796-.26-1.2-.782-1.21v-.584h2.91v.585c-.327.01-.55.13-.666.36-.073.15-.11.435-.11.85v4.394h3.04V34.92c0-.415-.035-.698-.11-.85-.115-.23-.34-.35-.67-.36v-.584h2.916v.586zm5.235-.586v.58c-.345.057-.566.2-.664.423-.073.15-.11.424-.11.82v.454a4.06 4.06 0 0 1 1.88-.462c.808 0 1.444.247 1.907.74.424.464.636 1.065.636 1.8 0 .63-.182 1.164-.542 1.598-.46.57-1.158.857-2.1.857h-3.917v-.58c.523-.067.784-.477.784-1.23V34.95c0-.405-.04-.683-.117-.834-.103-.206-.324-.343-.666-.41v-.58h2.91zm.214 6.196c1.257 0 1.886-.637 1.886-1.912 0-1.073-.5-1.61-1.498-1.61-.4 0-.858.124-1.375.373v3.15h.987zm7.408-3.42c.53 0 .928-.137 1.19-.41.09-.108.266-.442.535-1.004.507-1.03 1.164-1.545 1.973-1.545.166 0 .298.008.395.022V34.9h-.563c-.166-.358-.356-.536-.57-.536-.2 0-.424.212-.673.637-.337.533-.63.874-.885 1.026v-.008a2.36 2.36 0 0 1 1.49.887c.27.302.58.864.93 1.684.16.336.258.534.292.592.122.113.38.23.775.35v.41c-.23.075-.458.11-.687.11-.687 0-1.21-.187-1.572-.563-.243-.235-.514-.747-.81-1.538-.21-.498-.39-.833-.542-1.004-.253-.288-.584-.432-.993-.432h-.432v1.59c0 .766.256 1.173.768 1.222v.594h-2.873v-.594c.51-.05.767-.456.767-1.223v-3.17c0-.41-.034-.693-.102-.85-.102-.21-.324-.347-.665-.41v-.565h2.873v.565c-.34.063-.563.2-.665.41-.07.156-.103.44-.103.85v.966h.147zm9.496-2.776v.58c-.346.067-.568.204-.666.41-.063.15-.095.43-.095.833l.008 2.467 2.93-2.79c-.04-.498-.292-.805-.76-.923v-.578h2.86v.578c-.318.068-.528.2-.63.396-.088.16-.13.444-.13.85v3.178c0 .762.252 1.172.76 1.23v.578h-2.896v-.578c.53-.06.796-.47.796-1.23v-2.54l-2.94 2.745c.006.635.26.977.76 1.025v.58h-2.893v-.587c.52-.047.782-.455.782-1.222V34.95c0-.786-.26-1.2-.782-1.238v-.585h2.895zm9.137 0v.58c-.346.067-.568.204-.665.41-.064.15-.095.43-.095.833l.007 2.467 2.93-2.79c-.038-.498-.29-.805-.76-.923v-.578h2.86v.578c-.318.068-.528.2-.63.396-.088.16-.13.444-.13.85v3.178c0 .762.252 1.172.76 1.23v.578h-2.896v-.578c.53-.06.797-.47.797-1.23v-2.54l-2.94 2.745c.006.635.26.977.76 1.025v.58h-2.893v-.587c.522-.047.782-.455.782-1.222V34.95c0-.786-.26-1.2-.782-1.238v-.585h2.895zm-1.133-1.106c-.405-.327-.612-.703-.62-1.127-.01-.352.12-.645.393-.88.24-.248.546-.372.922-.372.497 0 .745.213.745.638 0 .376-.192.563-.577.563-.074 0-.217-.045-.432-.137a.524.524 0 0 0-.27-.074c-.142 0-.212.087-.212.263 0 .215.17.395.505.542.376.176.843.263 1.404.263.58 0 1.054-.087 1.424-.263.346-.147.52-.327.52-.542 0-.176-.084-.264-.25-.264a.557.557 0 0 0-.255.073c-.206.092-.354.138-.447.138-.36 0-.54-.186-.54-.562 0-.425.248-.637.744-.637.36 0 .665.128.914.38a1.1 1.1 0 0 1 .388.873c-.01.424-.22.8-.628 1.127-.473.377-1.097.564-1.872.564-.764 0-1.383-.187-1.856-.564zM79.27 46.185c-.658.136-1.136.573-1.433 1.31l-2.193 5.068c-.643 1.465-1.094 2.38-1.352 2.746-.56.785-1.292 1.178-2.193 1.178-.484 0-.903-.098-1.26-.293-.486-.244-.73-.605-.73-1.084 0-.565.266-.85.797-.85.22 0 .426.08.62.236.177.18.265.376.265.586l-.015.35c0 .29.193.433.578.433.784 0 1.44-.713 1.966-2.138l-3.602-6.38c-.41-.745-.807-1.13-1.192-1.15v-.63h3.267v.63c-.414.01-.62.153-.62.426 0 .17.12.46.357.864l2.537 4.563h-.03l1.997-4.606c.116-.23.175-.44.175-.63a.58.58 0 0 0-.213-.47c-.127-.126-.32-.17-.578-.13v-.646h2.85v.617zm-.285 9.586c.51-.058.767-.468.767-1.23v-3.178c0-.405-.034-.683-.102-.834-.102-.206-.324-.342-.665-.41v-.58h2.895v.58c-.337.068-.554.2-.65.396-.094.15-.14.434-.14.85v1.266h3.055v-1.267c0-.395-.046-.67-.14-.82-.086-.224-.3-.366-.642-.425v-.58h2.902v.58c-.346.07-.563.205-.65.41-.093.152-.14.43-.14.835v3.178c0 .753.264 1.163.79 1.23v.58h-2.902v-.586c.52-.03.782-.437.782-1.223v-1.28H81.09v1.28c0 .787.263 1.195.79 1.224v.586h-2.895v-.58zm11.317-6.23v5c0 .786.263 1.194.79 1.224v.585h-2.895v-.58c.512-.06.768-.47.768-1.23v-3.178c0-.405-.034-.684-.103-.835-.102-.205-.324-.34-.665-.41v-.578h2.105zm-1.49-2.79c.155-.2.37-.3.642-.3a.79.79 0 0 1 .607.248.84.84 0 0 1 .27.622c0 .278-.098.498-.298.66-.19.155-.382.234-.578.234-.223 0-.43-.09-.62-.272a.873.873 0 0 1-.27-.622c0-.21.08-.4.247-.57zm7.51 2.79c.638 0 1.203.07 1.695.21.658.245.987.724.987 1.436 0 .85-.443 1.36-1.33 1.53l-.066.008c1.175.1 1.762.68 1.762 1.743 0 1.256-.906 1.883-2.72 1.883h-3.837v-.586c.522-.03.782-.437.782-1.223v-3.178c0-.385-.04-.66-.117-.82-.102-.224-.324-.366-.665-.424v-.58h3.51zm-1.374 2.943h1.088c1 0 1.5-.398 1.5-1.194 0-.757-.5-1.136-1.5-1.136h-1.088v2.33zm0 3.193h1.133c1.16 0 1.74-.437 1.74-1.31 0-.846-.623-1.268-1.87-1.268h-1.002v2.578zm11.825-.77c-.82.98-1.735 1.473-2.75 1.473-.764 0-1.436-.206-2.016-.616-.76-.557-1.14-1.426-1.14-2.608 0-1.093.3-1.984.9-2.673.564-.683 1.3-1.025 2.207-1.025.838 0 1.498.307 1.98.923.42.543.63 1.173.63 1.89v.184h-4.168a10.8 10.8 0 0 0-.014.673c0 1.656.62 2.483 1.857 2.483.74 0 1.456-.354 2.148-1.062l.365.36zm-1.645-3.185c0-1.024-.412-1.537-1.236-1.537-.916 0-1.398.55-1.447 1.648h2.683v-.11zm2.53 6.98c.51-.048.767-.442.767-1.18V52.69c0-.752.07-1.282.212-1.59.497-1.093 1.486-1.64 2.967-1.64.873 0 1.626.264 2.26.79.745.626 1.118 1.498 1.118 2.616 0 1.103-.383 2-1.148 2.687-.58.504-1.284.755-2.112.755-.848 0-1.5-.234-1.952-.703h-.008v1.904c0 .796.296 1.194.885 1.194v.57h-2.99v-.57zm2.104-4.906c0 1.2.61 1.802 1.828 1.802 1.238 0 1.857-.91 1.857-2.732 0-1.81-.615-2.718-1.843-2.718-.614 0-1.096.227-1.447.68-.263.338-.395.695-.395 1.07v1.898zm12.86 1.178c-.823.92-1.77 1.377-2.836 1.377-.887 0-1.637-.284-2.25-.85-.68-.615-1.017-1.44-1.017-2.476 0-1.025.32-1.874.964-2.548.618-.693 1.418-1.04 2.397-1.04.708 0 1.26.142 1.66.425.37.25.556.543.556.88 0 .42-.226.63-.68.63-.468 0-.71-.233-.73-.697v-.03c-.04-.4-.293-.6-.76-.6-.527 0-.95.22-1.266.66-.404.508-.606 1.282-.606 2.32 0 .95.28 1.627.84 2.037.36.283.785.425 1.272.425.868 0 1.57-.288 2.105-.865l.353.352zm4.415-5.433v.577c-.346.07-.568.205-.665.41-.064.152-.095.43-.095.835l.007 2.468 2.93-2.79c-.038-.498-.29-.805-.76-.923v-.58h2.86v.58c-.318.07-.528.2-.63.396-.088.16-.13.444-.13.85v3.177c0 .762.252 1.172.76 1.23v.58h-2.896v-.58c.53-.058.797-.468.797-1.23V52l-2.94 2.745c.006.635.26.978.76 1.026v.58h-2.893v-.586c.522-.05.782-.457.782-1.223v-3.178c0-.786-.26-1.198-.782-1.237v-.586h2.895zm12.48 0v2.218h-.57c-.088-1.07-.67-1.604-1.747-1.604h-.25v4.386c0 .766.27 1.174.805 1.223v.586h-2.924v-.58c.348-.053.562-.17.644-.35.098-.17.147-.465.147-.88v-4.386h-.225c-1.04 0-1.628.534-1.77 1.604h-.57v-2.22h6.462zm7.14 5.367c-.82.98-1.736 1.472-2.75 1.472-.765 0-1.437-.206-2.017-.616-.76-.557-1.14-1.426-1.14-2.608 0-1.093.3-1.984.9-2.673.564-.683 1.3-1.025 2.207-1.025.838 0 1.498.307 1.98.923.42.543.63 1.173.63 1.89v.184H142.3c-.01.122-.015.346-.015.673 0 1.656.62 2.483 1.857 2.483.74 0 1.457-.354 2.15-1.062l.364.36zm-1.646-3.186c0-1.024-.41-1.537-1.235-1.537-.916 0-1.398.55-1.447 1.648h2.683v-.11zm9.27-2.18v2.218h-.57c-.087-1.07-.67-1.604-1.747-1.604h-.248v4.386c0 .766.268 1.174.804 1.223v.586h-2.925v-.58c.346-.053.56-.17.643-.35.098-.17.147-.465.147-.88v-4.386h-.227c-1.038 0-1.627.534-1.77 1.604h-.57v-2.22h6.463z"/></g></svg>